<?xml version="1.0" encoding="utf-8"?>
<!-- Generator: Adobe Illustrator 19.0.0, SVG Export Plug-In . SVG Version: 6.00 Build 0)  -->
<svg version="1.1" id="Layer_1" xmlns="http://www.w3.org/2000/svg" xmlns:xlink="http://www.w3.org/1999/xlink" x="0px" y="0px"
	 viewBox="0 0 36 36" style="enable-background:new 0 0 36 36;" xml:space="preserve">
<style type="text/css">
	.st0{fill:#91D2AF;}
	.st1{fill:#414B59;}
</style>
<g>
	<path class="st0" d="M25.8,16.1c0,3.4-2.8,6.2-6.2,6.2c-3.4,0-6.2-2.8-6.2-6.2s2.8-6.2,6.2-6.2C23,9.8,25.8,12.6,25.8,16.1
		L25.8,16.1z M25.8,16.1"/>
	<path class="st1" d="M28.8,5.8c-3.1,0-6.2-0.6-9.1-1.7L19.5,4l-0.2,0.1c-2.9,1.2-6,1.7-9.1,1.7h-1v9.3H7.1c-0.7,0-1.3,0.6-1.3,1.3
		v7.6c0,0.7,0.6,1.3,1.3,1.3h4c1.1,1.7,2.5,3,4.2,4l4.2,2.3l4.2-2.3c3.7-2,6-5.9,6-10.2V5.8H28.8z M6.6,24.1v-7.6
		c0-0.2,0.2-0.4,0.4-0.4h4c0.2,0,0.4,0.2,0.4,0.4v7.6c0,0.2-0.2,0.4-0.4,0.4h-4C6.8,24.5,6.6,24.3,6.6,24.1L6.6,24.1z M12.4,17.4
		c1.5-0.1,2.7-1.3,2.7-2.8v-2.3c0-0.6,0.5-1.1,1.1-1.1c0.6,0,1.1,0.5,1.1,1.1v2.8c0,0.8,0.6,1.4,1.4,1.4H22c0.8,0,1.5,0.7,1.5,1.5
		V23c0,0.9-0.7,1.5-1.5,1.5h-6.6c-0.4,0-0.7-0.2-0.9-0.5c-0.4-0.5-1-0.9-1.6-0.9h-0.5V17.4z M28.9,19.2c0,3.9-2.1,7.5-5.6,9.4
		l-3.8,2.1l-3.8-2.1c-1.5-0.8-2.9-2.1-3.8-3.5c0.3-0.2,0.4-0.6,0.5-0.9c0.9,1.5,2.2,2.8,3.8,3.7l3.4,1.8l3.4-1.8
		c3.1-1.7,5.1-5,5.1-8.6v-6.8h-0.9v6.8c0,3.3-1.8,6.2-4.6,7.8l-2.9,1.6L16.6,27c-1.3-0.7-2.3-1.7-3.1-2.8c0.1,0.1,0.2,0.2,0.3,0.3
		c0.4,0.5,1,0.9,1.6,0.9H22c1.3,0,2.4-1.1,2.4-2.4V18c0-1.3-1.1-2.4-2.4-2.4h-3.3c-0.3,0-0.5-0.2-0.5-0.5v-2.8c0-1.1-0.9-2-2-2
		c-1.1,0-2,0.9-2,2v2.3c0,1-0.8,1.8-1.8,1.9c0-0.4-0.2-0.7-0.4-1V8.4c2.6-0.2,5.1-0.7,7.6-1.6c2.4,0.9,5,1.4,7.6,1.6v0.5H28V7.6
		l-0.4,0c-2.7-0.1-5.3-0.7-7.9-1.6l-0.2-0.1L19.4,6c-2.5,0.9-5.2,1.5-7.9,1.6l-0.4,0v7.6h-0.9V6.7h0.1c3.2,0,6.3-0.6,9.2-1.7
		c3,1.2,6.1,1.7,9.2,1.7h0.1L28.9,19.2L28.9,19.2z M28.9,19.2"/>
	<rect x="27.1" y="10.7" class="st1" width="0.9" height="0.9"/>
	<rect x="7.5" y="22.7" class="st1" width="3.1" height="0.9"/>
</g>
</svg>
