<?xml version="1.0" encoding="utf-8"?>
<!-- Generator: Adobe Illustrator 19.0.0, SVG Export Plug-In . SVG Version: 6.00 Build 0)  -->
<svg version="1.1" id="Layer_1" xmlns="http://www.w3.org/2000/svg" xmlns:xlink="http://www.w3.org/1999/xlink" x="0px" y="0px"
	 viewBox="0 0 36 36" style="enable-background:new 0 0 36 36;" xml:space="preserve">
<style type="text/css">
	.st0{fill:#91D2AF;}
	.st1{fill:#414B59;}
</style>
<g>
	<path class="st0" d="M24,16.2c0,2.1-1.7,3.9-3.9,3.9c-2.1,0-3.9-1.7-3.9-3.9c0-2.1,1.7-3.9,3.9-3.9C22.3,12.3,24,14.1,24,16.2
		L24,16.2z M24,16.2"/>
	<path class="st1" d="M17.2,24.9c-1.1,0-1.9,0.9-1.9,1.9c0,1.1,0.9,1.9,1.9,1.9c1.1,0,1.9-0.9,1.9-1.9
		C19.2,25.8,18.3,24.9,17.2,24.9L17.2,24.9z M17.2,27.8c-0.5,0-1-0.4-1-1c0-0.5,0.4-1,1-1c0.5,0,1,0.4,1,1
		C18.2,27.4,17.8,27.8,17.2,27.8L17.2,27.8z M17.2,27.8"/>
	<path class="st1" d="M31.6,20.4c-0.4-0.3-1-0.4-1.5-0.2l-0.1,0L24.8,7.4l-13.2,4.7L8.9,5.6H3.7C2.9,5.6,2.2,6.2,2.2,7
		c0,0.8,0.7,1.5,1.5,1.5h3.1l6.8,16c-0.5,0.7-0.7,1.5-0.7,2.4c0,2.4,2,4.4,4.4,4.4c2.4,0,4.4-2,4.4-4.4c0,0,0-0.1,0-0.1l9.6-3.5
		c0.6-0.2,1.1-0.8,1.1-1.5C32.3,21.2,32,20.7,31.6,20.4L31.6,20.4z M18.5,10.6L20,14l-1.5,0.6l-1.5-3.4L18.5,10.6z M16,11.5l1.9,4.3
		l3.3-1.3l-1.9-4.2l4.8-1.7l4.9,12l-8.7,3.3c-0.8-0.8-1.9-1.3-3.1-1.3c-0.4,0-0.9,0.1-1.3,0.2L12,13L16,11.5z M3.7,7.5
		C3.4,7.5,3.2,7.3,3.2,7c0-0.3,0.2-0.5,0.5-0.5h4.5l6.9,16.5c-0.3,0.2-0.6,0.4-0.8,0.6L7.4,7.5H3.7z M17.2,30.2
		c-1.9,0-3.4-1.5-3.4-3.4c0-1.9,1.5-3.4,3.4-3.4c1.9,0,3.4,1.5,3.4,3.4C20.6,28.7,19.1,30.2,17.2,30.2L17.2,30.2z M30.9,22.3
		l-9.4,3.4c-0.1-0.4-0.3-0.8-0.5-1.1l9.4-3.5c0.2-0.1,0.4,0,0.6,0.1c0.2,0.1,0.3,0.3,0.3,0.5C31.3,22,31.1,22.2,30.9,22.3L30.9,22.3
		z M30.9,22.3"/>
</g>
</svg>
