<?xml version="1.0" encoding="utf-8"?>
<!-- Generator: Adobe Illustrator 19.0.0, SVG Export Plug-In . SVG Version: 6.00 Build 0)  -->
<svg version="1.1" id="Layer_1" xmlns="http://www.w3.org/2000/svg" xmlns:xlink="http://www.w3.org/1999/xlink" x="0px" y="0px"
	 viewBox="0 0 36 36" style="enable-background:new 0 0 36 36;" xml:space="preserve">
<style type="text/css">
	.st0{fill:#91D2AF;}
	.st1{fill:#414B59;}
</style>
<g>
	<path class="st0" d="M18.9,17.1h-0.2c-1,0.8-2.3,1.3-3.7,1.3c-1.4,0-2.7-0.5-3.7-1.3H6.9V24h16.2v-6.8H18.9z M18.9,17.1"/>
	<path class="st1" d="M29.9,25.7h-0.4V21h-1.7l-0.4-4.3h-3.8v-3.8h-2.2c0-0.1,0-0.3,0-0.4c0-1.7-0.7-3.3-1.8-4.4l0.3-0.3l0.8,0.8
		l0.6-0.6l-2.1-2.1l-0.6,0.6l0.8,0.8L19,7.5c-1-0.8-2.2-1.3-3.5-1.4V5.7h1.3V4.8h-3.4v0.9h1.3v0.4c-1.3,0.1-2.6,0.6-3.5,1.4
		l-0.3-0.3l0.8-0.8l-0.6-0.6L8.8,7.9l0.6,0.6l0.8-0.8L10.4,8c-1.1,1.1-1.8,2.7-1.8,4.4c0,0.1,0,0.3,0,0.4H6.5v12.8H6.1
		c-0.7,0-1.3,0.6-1.3,1.3s0.6,1.3,1.3,1.3h2.6c0,1.6,1.3,3,3,3c1.6,0,3-1.3,3-3h8.1c0,1.6,1.3,3,3,3c1.6,0,3-1.3,3-3h1.3
		c0.7,0,1.3-0.6,1.3-1.3S30.6,25.7,29.9,25.7L29.9,25.7z M26.6,17.6l0.3,3.4h-3.4v-3.4H26.6z M15,6.9c3.1,0,5.5,2.5,5.5,5.5
		c0,3.1-2.5,5.5-5.5,5.5s-5.5-2.5-5.5-5.5S12,6.9,15,6.9L15,6.9z M6.5,27.4H6.1c-0.2,0-0.4-0.2-0.4-0.4c0-0.2,0.2-0.4,0.4-0.4h0.4
		V27.4z M11.6,30.3c-1.2,0-2.1-1-2.1-2.1c0-1.2,1-2.1,2.1-2.1c1.2,0,2.1,1,2.1,2.1C13.7,29.4,12.8,30.3,11.6,30.3L11.6,30.3z
		 M14.5,27.4c-0.4-1.2-1.5-2.1-2.9-2.1s-2.5,0.9-2.9,2.1H7.4V13.7h1.4c0.6,2.9,3.2,5.1,6.3,5.1s5.7-2.2,6.3-5.1h1.4v13.6H14.5z
		 M25.7,30.3c-1.2,0-2.1-1-2.1-2.1c0-1.2,1-2.1,2.1-2.1c1.2,0,2.1,1,2.1,2.1C27.8,29.4,26.8,30.3,25.7,30.3L25.7,30.3z M28.6,27.4
		h-0.1c-0.4-1.2-1.5-2.1-2.9-2.1c-0.8,0-1.6,0.3-2.1,0.9v-4.3h5.1V27.4z M29.9,27.4h-0.4v-0.9h0.4c0.2,0,0.4,0.2,0.4,0.4
		C30.3,27.2,30.2,27.4,29.9,27.4L29.9,27.4z M29.9,27.4"/>
	<path class="st1" d="M11.6,26.9c-0.7,0-1.3,0.6-1.3,1.3c0,0.7,0.6,1.3,1.3,1.3c0.7,0,1.3-0.6,1.3-1.3
		C12.9,27.5,12.3,26.9,11.6,26.9L11.6,26.9z M11.6,28.6c-0.2,0-0.4-0.2-0.4-0.4c0-0.2,0.2-0.4,0.4-0.4c0.2,0,0.4,0.2,0.4,0.4
		C12,28.5,11.8,28.6,11.6,28.6L11.6,28.6z M11.6,28.6"/>
	<path class="st1" d="M25.7,26.9c-0.7,0-1.3,0.6-1.3,1.3c0,0.7,0.6,1.3,1.3,1.3s1.3-0.6,1.3-1.3C26.9,27.5,26.4,26.9,25.7,26.9
		L25.7,26.9z M25.7,28.6c-0.2,0-0.4-0.2-0.4-0.4c0-0.2,0.2-0.4,0.4-0.4c0.2,0,0.4,0.2,0.4,0.4C26.1,28.5,25.9,28.6,25.7,28.6
		L25.7,28.6z M25.7,28.6"/>
	<path class="st1" d="M13.7,12.5c0,0.7,0.6,1.3,1.3,1.3c0.7,0,1.3-0.6,1.3-1.3c0-0.7-0.6-1.3-1.3-1.3c-0.1,0-0.1,0-0.2,0l-2.4-2.9
		l-0.6,0.6l2.3,2.7C13.9,11.9,13.7,12.1,13.7,12.5L13.7,12.5z M15.4,12.5c0,0.2-0.2,0.4-0.4,0.4c-0.2,0-0.4-0.2-0.4-0.4
		c0-0.2,0.2-0.4,0.4-0.4C15.3,12,15.4,12.2,15.4,12.5L15.4,12.5z M15.4,12.5"/>
	<path class="st1" d="M14.6,17.1l0.1-0.8c-2-0.2-3.5-1.8-3.5-3.8c0-0.9,0.3-1.8,1-2.5l-0.6-0.6c-0.8,0.9-1.2,2-1.2,3.1
		C10.3,14.9,12.2,16.9,14.6,17.1L14.6,17.1z M14.6,17.1"/>
</g>
</svg>
