<?xml version="1.0" encoding="utf-8"?>
<!-- Generator: Adobe Illustrator 19.0.0, SVG Export Plug-In . SVG Version: 6.00 Build 0)  -->
<svg version="1.1" id="Layer_1" xmlns="http://www.w3.org/2000/svg" xmlns:xlink="http://www.w3.org/1999/xlink" x="0px" y="0px"
	 viewBox="192 -192 484 484" style="enable-background:new 192 -192 484 484;" xml:space="preserve">
<style type="text/css">
	.st0{fill:#14BEF1;}
</style>
<g>
	<g>
		<path class="st0" d="M606.7-96.4c-21.5-21.5-50.1-33.4-80.5-33.4c-30.4,0-59,11.8-80.5,33.4l-9,9l-9-9
			C406-118,377.4-129.8,347-129.8c-30.4,0-59,11.8-80.5,33.4c-44.4,44.4-44.4,116.7,0,161.1l161.6,161.6c2.3,2.3,5.4,3.5,8.5,3.5
			c3.1,0,6.1-1.2,8.5-3.5L606.7,64.6c21.5-21.5,33.4-50.1,33.4-80.5C640.1-46.3,628.3-74.9,606.7-96.4z M589.8,47.7L436.6,200.8
			L283.4,47.7c-35.1-35.1-35.1-92.1,0-127.1c17-17,39.6-26.3,63.6-26.3c24,0,46.6,9.4,63.6,26.3l17.5,17.5c4.7,4.7,12.3,4.7,17,0
			l17.5-17.5c17-17,39.6-26.3,63.6-26.3c24,0,46.6,9.4,63.6,26.3C624.8-44.4,624.8,12.6,589.8,47.7z"/>
	</g>
</g>
<g>
	<g>
		<path class="st0" d="M248,21.8h-44c-6.6,0-12,5.4-12,12s5.4,12,12,12h44c6.6,0,12-5.4,12-12S254.6,21.8,248,21.8z"/>
	</g>
</g>
<g>
	<g>
		<path class="st0" d="M624,22.2H509.1l-17.9-39.3c-1.3-3-4.3-4.8-7.6-4.7c-3.3,0.1-6.1,2.2-7.2,5.3L439.9,86.5l-44.4-123
			c-1.1-3-3.9-5.1-7.1-5.3c-3.5-0.2-6.2,1.7-7.6,4.6l-29.8,63.4H252c-4.4,0-8,3.6-8,8s5.3,7.6,9.7,7.6h104c3.1,0,4.2-1.4,5.6-4.2
			L387-12.9l45.5,125.9c1.1,3.2,4.2,5.3,7.5,5.3c0,0,0,0,0,0c3.4,0,6.4-2.1,7.5-5.3L484.9,7.5l11.8,26c1.3,2.9,5.8,4.3,9,4.3h120
			c4.4,0,6.3-3.2,6.3-7.6S628.4,22.2,624,22.2z"/>
	</g>
</g>
<g>
	<g>
		<path class="st0" d="M664,17.8h-36c-6.6,0-12,5.4-12,12s5.4,12,12,12h36c6.6,0,12-5.4,12-12S670.6,17.8,664,17.8z"/>
	</g>
</g>
</svg>
