<?xml version="1.0"?>
<svg xmlns="http://www.w3.org/2000/svg" xmlns:xlink="http://www.w3.org/1999/xlink" version="1.1" id="Capa_1" x="0px" y="0px" viewBox="0 0 479.995 479.995" style="enable-background:new 0 0 479.995 479.995;" xml:space="preserve" width="512px" height="512px"><g><g>
	<g>
		<path d="M466.35,218.344l-42.344,42.344L355.318,192l42.344-42.344l-11.312-11.312l-48,48L300.694,224H179.318l-37.656-37.656    l-48-48L82.35,149.656L124.694,192l-68.688,68.688l-42.344-42.344L2.35,229.656l48,48l40,40l42.4,42.176l-6.4,6.4    c-9.707,9.6-9.793,25.252-0.193,34.959c0.064,0.065,0.128,0.129,0.193,0.193c4.457,4.416,10.417,6.987,16.688,7.2    c0.231,6.259,2.847,12.192,7.312,16.584c4.459,4.413,10.418,6.984,16.688,7.2c0.244,6.269,2.881,12.207,7.368,16.592    c4.459,4.413,10.418,6.984,16.688,7.2c0.231,6.259,2.847,12.192,7.312,16.584c9.772,9.654,25.492,9.654,35.264,0l6.336-6.344    l6.336,6.296c9.763,9.745,25.576,9.731,35.321-0.032c4.425-4.433,7.023-10.366,7.279-16.624c6.28-0.227,12.242-2.815,16.696-7.248    c4.463-4.419,7.075-10.372,7.304-16.648c6.281-0.23,12.243-2.821,16.696-7.256c4.463-4.419,7.075-10.372,7.304-16.648    c13.733-0.474,24.481-11.991,24.006-25.724c-0.218-6.316-2.832-12.313-7.31-16.772l-6.064-6.04l42.072-42.072l40-40l48-48    L466.35,218.344z M67.318,272l68.688-68.688L164.694,232l-68.688,68.688L67.318,272z M150.406,390.008    c-3.536,3.532-9.264,3.532-12.8,0c-3.433-3.384-3.473-8.91-0.089-12.343c0.029-0.03,0.059-0.06,0.089-0.089l6.504-6.448    l12.696,12.544L150.406,390.008z M174.302,413.824c-3.531,3.45-9.173,3.443-12.696-0.016c-3.435-3.394-3.469-8.93-0.074-12.366    c0.025-0.025,0.049-0.05,0.074-0.074l6.472-6.4l12.624,12.544L174.302,413.824z M198.406,437.6c-3.539,3.523-9.261,3.523-12.8,0    c-3.433-3.384-3.473-8.91-0.089-12.343c0.029-0.03,0.059-0.06,0.089-0.089l6.448-6.4l12.616,12.544L198.406,437.6z     M222.406,461.392c-3.532,3.481-9.204,3.481-12.736,0c-3.433-3.384-3.473-8.91-0.089-12.343c0.029-0.03,0.059-0.06,0.089-0.089    l6.4-6.36l12.616,12.544L222.406,461.392z M342.418,389.628c-0.015,0.015-0.029,0.029-0.044,0.044l0.032,0    c-3.516,3.49-9.188,3.49-12.704,0l-12-11.952c-3.13-3.119-8.197-3.11-11.316,0.02s-3.11,8.197,0.02,11.316l12,11.952    c3.471,3.446,3.49,9.054,0.044,12.524c-0.015,0.015-0.029,0.029-0.044,0.044c-3.516,3.49-9.188,3.49-12.704,0l-12-11.952    c-3.13-3.119-8.197-3.11-11.316,0.02s-3.11,8.197,0.02,11.316l12,11.952c3.471,3.446,3.49,9.054,0.044,12.524    c-0.015,0.015-0.029,0.029-0.044,0.044c-3.516,3.49-9.188,3.49-12.704,0l-12-11.952c-3.13-3.119-8.197-3.11-11.316,0.02    s-3.11,8.197,0.02,11.316l12,11.952c3.471,3.446,3.49,9.054,0.044,12.524c-0.015,0.015-0.029,0.029-0.044,0.044    c-3.52,3.487-9.192,3.487-12.712,0L107.334,312l72-72h25.688l-58.72,60.096c-3.063,3.134-3.034,8.149,0.064,11.248    c9.915,10.014,23.228,15.941,37.304,16.608c14.164,0.75,27.981-4.552,38.008-14.584c0.354-0.35,0.672-0.733,0.952-1.144    l2.896-4.248c17.275,13.62,39.794,18.672,61.232,13.736l55.616,55.392C345.844,380.55,345.864,386.158,342.418,389.628z     M336.302,348.44l-33.56-33.424l6.064-4.616c0.285-0.222,0.552-0.465,0.8-0.728l8-8l-11.312-11.312l-7.608,7.608l-6.92,5.216    c-21.36,9.137-46.148,4.032-62.16-12.8c-3.124-3.125-8.189-3.125-11.314-0.002c-0.352,0.352-0.67,0.735-0.95,1.146l-7.56,11.064    c-6.837,6.472-16.021,9.87-25.424,9.408c-7.354-0.379-14.465-2.764-20.56-6.896L227.374,240h73.32l72,72L336.302,348.44z     M384.006,300.688L315.318,232l28.688-28.688L412.694,272L384.006,300.688z" data-original="#000000" class="active-path" data-old_color="#000000" fill="#B5D884"/>
	</g>
</g><g>
	<g>
		<rect x="88.006" y="264" width="16" height="16" data-original="#000000" class="active-path" data-old_color="#000000" fill="#B5D884"/>
	</g>
</g><g>
	<g>
		<rect x="376.006" y="264" width="16" height="16" data-original="#000000" class="active-path" data-old_color="#000000" fill="#B5D884"/>
	</g>
</g><g>
	<g>
		<path d="M256.006,144c35.33-0.04,63.96-28.67,64-64c0-4.418-3.582-8-8-8h-16c-18.396,0.01-35.892,7.959-48,21.808V64h8    c30.913-0.035,55.965-25.087,56-56c0-4.418-3.582-8-8-8h-16c-19.687,0.031-37.912,10.398-48,27.304    c-10.088-16.906-28.313-27.273-48-27.304h-16c-4.418,0-8,3.582-8,8c0.035,30.913,25.087,55.965,56,56h8v29.808    c-12.108-13.849-29.604-21.798-48-21.808h-16c-4.418,0-8,3.582-8,8c0.04,35.33,28.67,63.96,64,64h8v12.688L180.694,208h22.624    l36.688-36.688L276.694,208h22.624l-51.312-51.312V144H256.006z M296.006,88h7.336c-3.935,23.08-23.923,39.971-47.336,40h-7.336    C252.604,104.92,272.592,88.029,296.006,88z M288.006,16h7.2c-3.825,18.613-20.198,31.979-39.2,32h-7.2    C252.63,29.387,269.004,16.021,288.006,16z M224.006,48c-19.002-0.021-35.375-13.387-39.2-32h7.2    c19.002,0.021,35.375,13.387,39.2,32H224.006z M224.006,128c-23.413-0.029-43.401-16.92-47.336-40h7.336    c23.413,0.029,43.401,16.92,47.336,40H224.006z" data-original="#000000" class="active-path" data-old_color="#000000" fill="#B5D884"/>
	</g>
</g></g> </svg>
