<?xml version="1.0" encoding="utf-8"?>
<!-- Generator: Adobe Illustrator 19.0.0, SVG Export Plug-In . SVG Version: 6.00 Build 0)  -->
<svg version="1.1" id="Layer_1" xmlns="http://www.w3.org/2000/svg" xmlns:xlink="http://www.w3.org/1999/xlink" x="0px" y="0px"
	 viewBox="0 0 25.2 25" style="enable-background:new 0 0 25.2 25;" xml:space="preserve">
<style type="text/css">
	.st0{fill:#FFFFFF;}
	.st1{fill:#00E676;}
</style>
<g id="XMLID_1804_">
	<path id="XMLID_1799_" class="st0" d="M18.7,24.2H6.5c-3.1,0-5.6-2.5-5.6-5.6V6.4c0-3.1,2.5-5.6,5.6-5.6h12.2
		c3.1,0,5.6,2.5,5.6,5.6v12.2C24.2,21.7,21.8,24.2,18.7,24.2z"/>
	<g id="XMLID_1742_">
		<path id="XMLID_1746_" class="st1" d="M24.9,12.6c0,2.2-0.1,4.4,0,6.7c0.1,3-2.4,5.7-5.8,5.7c-4.3,0-8.7,0-13,0
			c-3.4,0-5.9-2.7-5.8-5.8c0-4.3,0-8.5,0-12.8c0-3.7,2.3-6.1,6-6.1c3.5,0,7.1,0,10.7,0c1.1,0,2.2,0,3.3,0.2c2.6,0.2,4.8,2.9,4.6,5.3
			c0,0.1,0,0.2,0,0.3C24.9,8.1,24.9,10.3,24.9,12.6C24.9,12.6,24.9,12.6,24.9,12.6z M8.2,20.3c0.2,0.1,0.4,0.2,0.6,0.3
			c6.4,2.9,13.2-1.8,13.1-8.4c-0.1-5.6-5.4-10.2-11.5-8.7c-5.1,1.3-8.4,7-6,12.4c0.5,1,0.5,1.9,0.1,2.9c-0.3,0.7-0.5,1.4-0.7,2.1
			c-0.1,0.3-0.1,0.6-0.2,0.9C5.2,21.3,6.7,20.8,8.2,20.3z"/>
		<path id="XMLID_1743_" class="st1" d="M5.5,19.8c0.2-0.6,0.3-1.1,0.4-1.5c0.1-0.4,0.3-0.8,0.4-1.2c-0.4-0.9-0.8-1.6-1.1-2.5
			c-1.3-3.4,0.5-7.3,3.3-9c2.9-1.7,5.8-1.7,8.6,0.3c2.8,1.9,3.8,4.7,3.2,7.9c-0.6,3.3-2.7,5.4-6,6.2c-1.6,0.4-3.3,0.3-4.8-0.5
			c-1-0.5-1.8-0.5-2.8-0.1C6.5,19.6,6.1,19.6,5.5,19.8z M10.3,8.2C9,8.2,8.6,8.5,8.3,9.5c-0.2,0.7-0.2,1.5,0.2,2.2
			c1.3,2.3,3,4,5.6,4.8c0.5,0.2,1.2,0.1,1.7,0c1.1-0.2,1.5-0.9,1.4-2.2c-0.7-0.3-1.4-0.6-2.2-1c-0.3,0.5-0.6,0.9-0.9,1.4
			c-1.7-0.6-2.8-1.6-3.6-2.9C11.4,10.3,11.4,10.3,10.3,8.2z"/>
	</g>
</g>
<g id="XMLID_40_">
</g>
<g id="XMLID_41_">
</g>
<g id="XMLID_42_">
</g>
<g id="XMLID_43_">
</g>
<g id="XMLID_44_">
</g>
<g id="XMLID_45_">
</g>
<g id="XMLID_46_">
</g>
<g id="XMLID_47_">
</g>
<g id="XMLID_48_">
</g>
<g id="XMLID_49_">
</g>
<g id="XMLID_50_">
</g>
<g id="XMLID_51_">
</g>
<g id="XMLID_52_">
</g>
<g id="XMLID_53_">
</g>
<g id="XMLID_54_">
</g>
</svg>
